<?xml version="1.0" standalone="no"?>
<!DOCTYPE svg PUBLIC "-//W3C//DTD SVG 20010904//EN"
 "http://www.w3.org/TR/2001/REC-SVG-20010904/DTD/svg10.dtd">
<svg version="1.0" xmlns="http://www.w3.org/2000/svg"
 width="236.000000pt" height="318.000000pt" viewBox="0 0 236.000000 318.000000"
 preserveAspectRatio="xMidYMid meet">
<g transform="translate(0.000000,318.000000) scale(0.100000,-0.100000)"
fill="#000000" stroke="none">
<path d="M1970 2875 c-18 -19 -26 -22 -32 -13 -5 9 -8 8 -8 -6 0 -41 -125
-200 -158 -201 -4 0 -35 -7 -69 -14 -53 -11 -63 -17 -63 -35 0 -11 -1 -31 -1
-44 0 -35 -55 -118 -87 -131 -52 -22 -75 -49 -68 -77 4 -14 3 -31 -2 -37 -17
-22 -23 -99 -11 -135 11 -32 10 -37 -10 -53 -17 -14 -20 -25 -16 -50 4 -22 1
-37 -12 -51 -10 -11 -17 -34 -16 -55 1 -23 -10 -54 -32 -92 -29 -49 -32 -58
-19 -72 21 -23 17 -41 -16 -73 -16 -16 -32 -38 -36 -50 -3 -12 -20 -35 -36
-53 -28 -29 -29 -33 -14 -48 9 -9 16 -19 16 -21 0 -30 -159 -247 -274 -374
-43 -47 -90 -103 -104 -125 -32 -48 -47 -61 -89 -80 -24 -10 -33 -21 -33 -38
0 -13 -7 -32 -16 -43 -15 -18 -15 -18 -10 11 5 28 5 28 -6 8 -6 -13 -16 -23
-22 -24 -34 -2 -53 -10 -67 -28 -16 -20 -17 -19 -15 21 3 45 20 64 98 106 41
22 40 20 -27 -44 -38 -37 -61 -62 -50 -56 11 6 36 26 54 46 38 39 53 45 46 18
-3 -9 2 -1 11 18 9 19 38 59 66 89 50 55 93 117 105 149 4 9 -14 -12 -38 -48
-24 -36 -49 -65 -56 -65 -7 0 -19 -9 -27 -20 l-15 -20 -1 20 c-1 14 -5 10 -13
-13 -9 -23 -32 -45 -79 -76 -38 -24 -68 -41 -68 -38 0 4 9 22 20 39 20 34 34
41 45 23 9 -14 35 7 35 26 0 14 -12 18 -39 14 -11 -1 -12 8 -7 39 15 96 76
211 112 211 9 0 12 5 9 10 -3 6 -2 10 3 10 14 0 35 -51 42 -105 l7 -50 2 43
c0 26 -7 59 -20 84 -21 40 -21 42 -3 56 11 8 35 21 54 29 56 23 194 94 205
105 6 6 -22 -6 -61 -25 l-71 -36 -10 27 -11 27 5 -30 c4 -29 2 -32 -51 -54
-30 -12 -60 -29 -67 -37 -21 -26 -29 -15 -31 44 -2 56 -2 56 -5 10 l-4 -48
-30 16 c-17 8 -33 14 -35 12 -2 -2 12 -12 31 -23 19 -10 35 -24 35 -31 0 -6
-15 -30 -34 -52 -42 -51 -86 -159 -86 -212 0 -22 -4 -40 -9 -40 -6 0 -24 -29
-40 -64 -17 -35 -38 -69 -47 -77 -8 -7 -26 -34 -40 -60 -23 -46 -40 -66 -50
-57 -2 3 7 48 21 100 13 53 30 159 38 235 12 112 20 149 41 189 38 73 59 94
98 95 23 1 26 3 11 6 -13 2 -23 8 -23 13 0 5 24 29 53 54 l52 46 6 -27 7 -28
1 32 c1 23 9 37 31 53 35 25 54 18 95 -32 15 -18 22 -23 16 -12 -6 12 -25 34
-43 49 -28 24 -30 28 -15 36 33 19 143 111 208 175 44 42 69 61 72 52 3 -7 6
-4 6 7 1 12 7 27 14 35 10 12 9 12 -5 2 -13 -10 -17 -10 -21 0 -3 7 -6 3 -6
-8 -2 -36 -266 -271 -301 -268 -5 1 -21 2 -34 3 -22 1 -25 7 -29 44 -3 24 -4
12 -4 -29 l0 -72 -65 -61 c-39 -37 -75 -61 -89 -62 -17 -1 -19 -3 -7 -6 16 -4
16 -7 -6 -36 -48 -64 -66 -115 -76 -210 -11 -114 -25 -182 -57 -272 -32 -91
-48 -110 -102 -118 -72 -9 -151 -56 -190 -111 -29 -41 -36 -60 -39 -111 -8
-123 33 -236 116 -320 100 -102 95 -100 207 -100 89 0 105 3 150 27 66 35 108
81 139 149 13 31 31 59 40 62 8 3 16 16 18 29 7 50 103 61 270 32 134 -23 201
-23 227 0 27 24 26 29 -5 63 l-26 28 21 -29 c50 -69 -23 -84 -209 -42 -58 13
-125 27 -149 31 -44 7 -44 7 -20 22 23 14 23 14 1 10 -12 -3 -20 -1 -17 4 7
11 71 5 158 -16 97 -22 155 -5 220 64 26 28 47 55 47 60 0 18 98 60 132 57 18
-2 23 -1 11 1 -27 5 -30 18 -6 28 11 4 23 -1 33 -12 19 -23 110 -83 124 -83 6
1 -5 9 -24 20 -19 11 -53 35 -75 53 l-39 34 25 34 c30 39 52 79 45 79 -3 0
-12 -12 -21 -28 -8 -15 -24 -38 -35 -51 -19 -22 -22 -23 -39 -7 -10 9 -32 36
-49 60 l-32 44 70 16 c38 9 94 19 122 22 87 9 272 60 340 95 99 50 182 114
222 172 20 29 36 56 36 62 0 5 -13 -11 -29 -36 -42 -62 -49 -70 -111 -116 -84
-63 -173 -103 -298 -134 -137 -35 -139 -35 -145 -6 l-4 22 -2 -22 c0 -13 -3
-23 -5 -23 -2 0 -49 -9 -106 -21 -91 -18 -104 -19 -117 -6 -14 13 -13 16 3 20
31 10 208 59 219 61 6 2 57 25 115 53 105 50 254 151 298 201 64 75 77 98 20
37 -85 -91 -212 -181 -324 -229 -49 -21 -97 -42 -106 -47 -10 -5 -61 -21 -115
-35 -54 -15 -107 -29 -117 -32 -14 -4 -17 -2 -11 8 5 8 4 11 -3 6 -6 -3 -32 7
-59 24 -30 19 -69 33 -101 37 -46 5 -50 8 -41 24 5 11 18 19 29 19 14 0 18 6
17 27 -2 29 10 34 96 48 27 4 37 10 34 20 -3 7 2 15 13 18 14 4 20 19 25 73 4
38 16 88 27 110 36 77 172 218 286 295 56 39 63 47 56 75 -4 15 2 27 20 42 27
20 34 50 16 68 -6 6 -1 23 16 47 23 34 24 40 12 73 -10 29 -10 48 5 118 23
111 22 139 -8 226 -35 102 -33 146 8 205 17 26 50 57 72 69 53 28 63 43 61 86
-2 19 -4 60 -5 90 -1 44 -4 51 -12 37 -6 -10 -8 -33 -5 -51 9 -48 -17 -100
-90 -180 -67 -73 -124 -162 -124 -193 0 -10 10 -43 21 -73 52 -132 9 -384 -79
-468 -18 -17 -21 -26 -13 -36 9 -10 7 -26 -7 -62 l-18 -49 -64 0 c-42 0 -65
-4 -67 -12 -3 -7 -13 -13 -23 -13 -25 0 -35 -18 -31 -56 2 -23 -7 -45 -28 -75
-17 -23 -31 -46 -31 -51 0 -4 -9 -17 -20 -28 -11 -11 -20 -31 -20 -45 0 -16
-6 -25 -15 -25 -11 0 -14 -7 -9 -24 12 -51 -66 -163 -134 -192 -45 -18 -49
-18 -29 4 9 10 20 32 23 49 4 20 14 33 27 37 17 4 18 7 7 20 -10 13 -9 20 4
41 9 13 16 29 16 35 0 7 18 42 40 78 21 37 59 117 83 177 48 118 111 250 170
356 68 121 107 281 107 441 0 67 3 80 25 106 13 16 38 35 55 42 16 7 30 17 30
22 0 5 22 31 50 58 47 48 110 143 125 189 7 23 21 28 28 9 3 -7 6 -1 6 13 1
14 17 44 37 67 39 46 42 57 4 17z m-530 -2097 c51 -61 51 -62 29 -73 -17 -10
-33 -9 -73 1 -28 8 -76 13 -106 12 -53 -1 -52 -1 20 -8 41 -5 86 -12 100 -18
25 -10 24 -10 -19 -30 l-43 -20 -27 27 c-14 15 -17 17 -7 4 24 -28 19 -33 -62
-62 -167 -59 -282 -80 -282 -51 0 11 65 59 124 92 28 15 47 28 43 28 -16 0
-85 -40 -135 -79 -57 -45 -97 -53 -105 -21 -3 11 -1 20 3 20 5 0 11 8 14 18 8
25 99 92 124 92 12 0 31 11 44 24 26 27 229 101 290 105 9 0 39 -27 68 -61z"/>
</g>
</svg>
